<?xml version="1.0" encoding="UTF-8" standalone="no"?>
<svg width="77px" height="64px" viewBox="0 0 77 64" version="1.1" xmlns="http://www.w3.org/2000/svg" xmlns:xlink="http://www.w3.org/1999/xlink">
    <!-- Generator: Sketch 40.3 (33839) - http://www.bohemiancoding.com/sketch -->
    <title>logo/logo</title>
    <desc>Created with Sketch.</desc>
    <defs></defs>
    <g id="Symbols" stroke="none" stroke-width="1" fill="none" fill-rule="evenodd">
        <g id="logo/logo" fill="#FFFFFF">
            <g id="Page-1">
                <g id="Group-3" transform="translate(20.810811, 0.576070)">
                    <path d="M31.7510541,16.5564522 C29.2856667,16.7519304 26.6142523,17.1623652 24.649018,17.5248 L24.6483243,17.5248 C21.4774505,18.0931478 20.2288018,18.5091478 20.3883514,19.2604522 C20.4958739,19.7648 21.1833243,19.7766261 25.3101081,19.8413217 L25.3066396,19.8294957 C26.1224234,19.8503652 26.8237477,19.8705391 27.6527117,19.9046261 C29.3834775,19.9762783 30.4122252,20.3074087 28.9506126,22.3776696 C27.4855315,24.4534957 23.6202703,28.9759304 21.7833694,30.6517565 C20.5763423,31.7522783 20.6588919,30.9912348 21.064009,29.0865391 C21.5461261,27.0580174 22.3313874,24.8924522 19.2167027,24.598887 C15.3008018,24.2301913 11.0311171,24.2315826 9.3607027,24.0604522 C7.68959459,23.8886261 6.72466667,22.9661913 7.70693694,21.0531478 C9.61181982,17.3418435 15.9174955,10.3366261 20.0664775,5.27714783 C22.9758288,1.86149565 23.0188378,0.898017391 22.4888559,0.357495652 C22.0317117,-0.101634783 21.2443694,0.201669565 20.7976306,0.451408696 C17.2036036,2.97106087 13.5471441,6.36932174 7.26782883,13.0809739 C5.3462973,15.1352348 2.95999099,17.9282783 1.96800901,19.2103652 C-1.82927027,24.1154087 0.394018018,28.242713 4.3557027,28.6364522 C7.76243243,28.9752348 12.0848378,29.1157565 13.7032252,29.2208 C15.2349009,29.3202783 16.1921982,29.8649739 15.698982,32.514713 C15.2085405,35.1477565 15.135009,35.8009739 14.9338378,37.0830609 C14.543982,39.5651478 15.9195766,40.818713 18.0915315,39.5088 C20.2641802,38.198887 30.7396486,27.6291478 34.0277568,21.426713 C35.1855315,19.2437565 36.020045,16.2183652 31.7510541,16.5564522" id="Fill-1"></path>
                </g>
                <polygon id="Fill-4" points="28.3839342 54.305113 34.1873757 54.305113 34.1873757 55.9183304 30.1257991 55.9183304 30.1257991 57.8953739 33.382691 57.8953739 33.382691 59.509287 30.1257991 59.509287 30.1257991 62.1047652 34.3219523 62.1047652 34.3219523 63.7179826 28.3839342 63.7179826"></polygon>
                <path d="M8.28131532,58.6997565 L4.59433333,58.6997565 L4.59433333,58.7025391 L4.57768468,58.7025391 L4.57768468,60.3171478 L6.72397297,60.3171478 C6.54569369,61.186713 5.87766667,62.2009739 4.47571171,62.2009739 C2.86842342,62.2009739 1.85701802,60.6934957 1.85701802,59.0121043 C1.85701802,57.0183652 2.95236036,55.8225391 4.3563964,55.8225391 C5.60643243,55.8225391 6.24948649,56.370713 6.57066667,57.1929739 L8.2833964,56.6434087 C7.86232432,55.6089739 6.91820721,54.1529739 4.3563964,54.1529739 C1.70232432,54.1529739 0,56.4952348 0,59.0121043 C0,61.5282783 1.70232432,63.8698435 4.3563964,63.8698435 C5.22420721,63.8698435 6.01293694,63.6590609 6.67472072,63.234713 L6.67472072,63.7181913 L8.2833964,63.7181913 L8.2833964,58.7025391 L8.28131532,58.7025391 L8.28131532,58.6997565 Z" id="Fill-6"></path>
                <path d="M50.2711495,63.7182609 L49.5871676,61.4998261 L46.6119153,61.4998261 L45.928627,63.7182609 L44.0514919,63.7182609 L47.228609,54.3053913 L48.9704739,54.3053913 L52.1468973,63.7182609 L50.2711495,63.7182609 Z M48.0991946,56.6177391 L47.1079063,59.885913 L49.0911766,59.885913 L48.0991946,56.6177391 Z" id="Fill-8"></path>
                <polygon id="Fill-10" points="51.8739982 55.9186087 51.8739982 54.3053913 58.8164847 54.3053913 58.8164847 55.9186087 56.2165207 55.9186087 56.2165207 63.7182609 54.4739622 63.7182609 54.4739622 55.9186087"></polygon>
                <path d="M64.1059685,54.1524174 C65.744473,54.1524174 67.1117432,54.7910261 67.9386261,56.2992 C68.3576171,57.0463304 68.5747432,57.9562435 68.5747432,59.0164174 C68.5747432,61.1360696 67.6403378,62.6845913 66.3271757,63.3781565 C65.6633108,63.7169391 64.931464,63.8804174 64.1059685,63.8804174 C62.4667703,63.8804174 61.1126802,63.241113 60.2601306,61.7336348 C59.8404459,60.9865043 59.6371937,60.0758957 59.6371937,59.0164174 C59.6371937,56.8967652 60.5715991,55.3343304 61.8847613,54.6685913 C62.5486261,54.329113 63.2790856,54.1524174 64.1059685,54.1524174 M64.1059685,55.7823304 C63.3338874,55.7823304 62.6970766,56.0550261 62.1830495,56.5976348 C61.6822027,57.1416348 61.4241486,57.9430261 61.4241486,59.0164174 C61.4241486,60.0898087 61.6822027,60.8918957 62.1830495,61.4345043 C62.6970766,61.9785043 63.3338874,62.2505043 64.1059685,62.2505043 C64.8773559,62.2505043 65.513473,61.9785043 66.0157072,61.4345043 C66.5297342,60.8918957 66.7870946,60.0898087 66.7870946,59.0164174 C66.7870946,57.9430261 66.5297342,57.1416348 66.0157072,56.5976348 C65.513473,56.0550261 64.8773559,55.7823304 64.1059685,55.7823304" id="Fill-12"></path>
                <path d="M76.5918306,56.9868522 L76.5918306,56.9868522 C76.5883622,55.3750261 75.5547586,54.3148522 73.7317315,54.3148522 L70.3083532,54.3148522 L70.3090468,63.7179826 L72.0543802,63.7179826 L72.0543802,59.6672 L72.546209,59.6672 L74.6446324,63.7179826 L76.5918306,63.7179826 L74.4566414,59.6045913 C75.8259928,59.3555478 76.5883622,58.3788522 76.5918306,56.9952 L76.5918306,56.9910261 L76.5918306,56.9868522 Z M73.7456054,58.0512 L72.0543802,58.0512 L72.0536865,55.9308522 L73.7456054,55.9308522 C74.4830018,55.9308522 74.8451099,56.2800696 74.8464973,56.9910261 C74.8451099,57.7019826 74.4830018,58.0512 73.7456054,58.0512 L73.7456054,58.0512 Z" id="Fill-14"></path>
                <path d="M42.8906649,56.9664696 L42.8906649,56.9664696 C42.8871964,55.3497739 41.850818,54.2861217 40.0222414,54.2861217 L36.5884577,54.2861217 L36.5891514,63.7184696 L38.3393405,63.7184696 L38.3393405,59.6551652 L38.8332505,59.6551652 L40.9379171,63.7184696 L42.8906649,63.7184696 L40.7485387,59.5918609 C42.1220523,59.3428174 42.8871964,58.3626435 42.8906649,56.9748174 L42.8906649,56.9706435 L42.8906649,56.9671652 L42.8906649,56.9664696 Z M40.0361153,58.0342957 L38.3393405,58.0342957 L38.3386468,55.907687 L40.0361153,55.907687 C40.7755928,55.907687 41.1390883,56.2576 41.1404757,56.9706435 C41.1390883,57.683687 40.7755928,58.0342957 40.0361153,58.0342957 L40.0361153,58.0342957 Z" id="Fill-16"></path>
                <polygon id="Fill-18" points="10.7054279 54.305113 16.5088694 54.305113 16.5088694 55.9183304 12.4472928 55.9183304 12.4472928 57.8953739 15.7041847 57.8953739 15.7041847 59.509287 12.4472928 59.509287 12.4472928 62.1047652 16.6434459 62.1047652 16.6434459 63.7179826 10.7054279 63.7179826"></polygon>
                <polygon id="Fill-20" points="24.2373108 54.305113 25.9791757 54.305113 25.9791757 63.7179826 24.1429685 63.7179826 20.6987793 57.5058087 20.6987793 63.7179826 18.9562207 63.7179826 18.9562207 54.305113 20.7924279 54.305113 24.2373108 60.5179826"></polygon>
            </g>
        </g>
    </g>
</svg>