<?xml version="1.0" encoding="UTF-8" standalone="no"?>
<svg width="108px" height="18px" viewBox="0 0 108 18" version="1.1" xmlns="http://www.w3.org/2000/svg" xmlns:xlink="http://www.w3.org/1999/xlink">
    <!-- Generator: Sketch 40.3 (33839) - http://www.bohemiancoding.com/sketch -->
    <title>logo/logo_mobile</title>
    <desc>Created with Sketch.</desc>
    <defs></defs>
    <g id="Pages" stroke="none" stroke-width="1" fill="none" fill-rule="evenodd">
        <g id="mobile---homepage---expanded" transform="translate(-106.000000, -11.000000)">
            <g id="mobile/header">
                <g id="logo/logo_mobile" transform="translate(106.500000, 11.000000)">
                    <path d="M11.2854996,0.0134624008 L11.2854996,0.0134624008 C10.5870339,-0.290134029 5.29959434,4.61368604 2.8346375,7.39210527 C0.551624662,9.98144482 -0.288989445,11.3621951 0.0859062378,12.3647483 C0.597073348,13.625016 2.78935673,13.4131647 5.18591665,13.4418833 C5.95277926,13.4418833 7.53734506,13.3672639 7.71889726,13.6940084 C7.9063451,14.0490573 7.67342992,14.6275316 7.3726029,16.2891067 C7.16241206,17.5266592 7.69634083,18.9014437 9.72369548,16.8276836 C12.3758949,14.1176921 14.5400621,11.7345956 15.7495456,9.39721177 C16.3118891,8.32585437 16.0109502,7.6957017 13.983241,7.99931695 C11.7229339,8.32585437 9.40014413,8.56081602 9.63307797,9.1394785 C9.72369548,9.37427078 12.0068576,9.3283888 12.7282902,9.3283888 C14.2161749,9.3283888 13.7957372,9.88988787 12.3307634,11.5971567 C10.8425429,13.2986291 9.81461151,14.3757641 9.76914417,13.9517228 C9.76914417,13.5791152 10.2120823,12.59971 10.2805352,11.8720534 C10.3030543,11.6198907 10.0476013,11.4309992 9.60458858,11.385136 C8.0938116,11.2648417 5.62904133,11.2419007 4.95315072,11.1501556 C3.83426603,10.9612453 3.69230419,10.3309044 6.74219829,6.57289174 C8.53674971,4.35597159 12.3988245,0.523301905 11.2854996,0.0134624008" id="Fill-5" fill="#FEFEFE"></path>
                    <polygon id="Fill-4" fill="#FFFFFF" points="54.6450518 5 60.8534164 5 60.8534164 6.66767384 56.5084517 6.66767384 56.5084517 8.71145523 59.9925865 8.71145523 59.9925865 10.3798482 56.5084517 10.3798482 56.5084517 13.0629405 60.9973828 13.0629405 60.9973828 14.7306144 54.6450518 14.7306144"></polygon>
                    <path d="M32.8591269,9.70026572 L28.9148934,9.70026572 L28.9148934,9.70314226 L28.8970831,9.70314226 L28.8970831,11.3722544 L31.1931242,11.3722544 C31.0024059,12.271173 30.2877687,13.3196717 28.7879952,13.3196717 C27.0685617,13.3196717 25.9865876,11.7613064 25.9865876,10.0231573 C25.9865876,7.96211666 27.1583552,6.72592377 28.6603549,6.72592377 C29.9976096,6.72592377 30.6855314,7.29260207 31.0291213,8.14261952 L32.8613532,7.57450295 C32.4109017,6.50514935 31.4009108,5 28.6603549,5 C25.8211005,5 24,7.42132722 24,10.0231573 C24,12.6242682 25.8211005,15.0448763 28.6603549,15.0448763 C29.5887154,15.0448763 30.4324771,14.8269784 31.1404355,14.3883062 L31.1404355,14.8881049 L32.8613532,14.8881049 L32.8613532,9.70314226 L32.8591269,9.70314226 L32.8591269,9.70026572 Z" id="Fill-6" fill="#FFFFFF"></path>
                    <path d="M77.3508432,14.7306144 L76.6191378,12.4372932 L73.4362935,12.4372932 L72.7053302,14.7306144 L70.6972219,14.7306144 L74.0960157,5 L75.9594156,5 L79.3574674,14.7306144 L77.3508432,14.7306144 Z M75.0273446,7.39040442 L73.9668913,10.7689002 L76.0885401,10.7689002 L75.0273446,7.39040442 Z" id="Fill-8" fill="#FFFFFF"></path>
                    <polygon id="Fill-10" fill="#FFFFFF" points="79.452951 6.66767384 79.452951 5 86.879835 5 86.879835 6.66767384 84.098464 6.66767384 84.098464 14.7306144 82.234322 14.7306144 82.234322 6.66767384"></polygon>
                    <path d="M92.9892543,5 C94.7420821,5 96.2047508,5.66016584 97.0893277,7.21925031 C97.5375529,7.99160119 97.7698286,8.93222965 97.7698286,10.0281912 C97.7698286,12.2193953 96.770227,13.8201896 95.3654417,14.5371671 C94.655257,14.8873858 93.8723471,15.0563825 92.9892543,15.0563825 C91.2356845,15.0563825 89.7871156,14.3954975 88.8750811,12.8371322 C88.4261138,12.0647813 88.2086801,11.1234337 88.2086801,10.0281912 C88.2086801,7.83698719 89.2082817,6.2218102 90.613067,5.5335981 C91.3232517,5.18266027 92.1046774,5 92.9892543,5 M92.9892543,6.68493308 C92.1633029,6.68493308 91.4820599,6.96683396 90.9321677,7.52775918 C90.3963753,8.09012268 90.1203161,8.91856608 90.1203161,10.0281912 C90.1203161,11.1378164 90.3963753,11.9669789 90.9321677,12.5279042 C91.4820599,13.0902677 92.1633029,13.3714494 92.9892543,13.3714494 C93.8144637,13.3714494 94.4949645,13.0902677 95.0322411,12.5279042 C95.5821333,11.9669789 95.8574505,11.1378164 95.8574505,10.0281912 C95.8574505,8.91856608 95.5821333,8.09012268 95.0322411,7.52775918 C94.4949645,6.96683396 93.8144637,6.68493308 92.9892543,6.68493308" id="Fill-12" fill="#FFFFFF"></path>
                    <path d="M106.60488,7.76219716 L106.60488,7.76219716 C106.601169,6.09596159 105.495448,5 103.545223,5 L99.8829855,5 L99.8837276,14.7205465 L101.750838,14.7205465 L101.750838,10.5330239 L102.276983,10.5330239 L104.52182,14.7205465 L106.60488,14.7205465 L104.320712,10.4683018 C105.785607,10.2108515 106.601169,9.2011861 106.60488,7.77082678 L106.60488,7.76651197 L106.60488,7.76219716 Z M103.560065,8.86247356 L101.750838,8.86247356 L101.750096,6.67055038 L103.560065,6.67055038 C104.348912,6.67055038 104.736285,7.0315561 104.737769,7.76651197 C104.736285,8.50146784 104.348912,8.86247356 103.560065,8.86247356 L103.560065,8.86247356 Z" id="Fill-14" fill="#FFFFFF"></path>
                    <path d="M70.1427116,7.77082678 L70.1427116,7.77082678 C70.1390011,6.09955727 69.0303116,5 67.0741499,5 L63.4007809,5 L63.401523,14.7507501 L65.2738281,14.7507501 L65.2738281,10.5502832 L65.8021995,10.5502832 L68.0537149,14.7507501 L70.1427116,14.7507501 L67.8511231,10.4848419 C69.3204706,10.2273916 70.1390011,9.21413053 70.1427116,7.7794564 L70.1427116,7.77514159 L70.1427116,7.77154591 L70.1427116,7.77082678 Z M67.0889918,8.87469886 L65.2738281,8.87469886 L65.273086,6.67630346 L67.0889918,6.67630346 C67.8800648,6.67630346 68.2689224,7.03802831 68.2704066,7.77514159 C68.2689224,8.51225486 67.8800648,8.87469886 67.0889918,8.87469886 L67.0889918,8.87469886 Z" id="Fill-16" fill="#FFFFFF"></path>
                    <polygon id="Fill-18" fill="#FFFFFF" points="35.6743055 5 41.88267 5 41.88267 6.66767384 37.5377053 6.66767384 37.5377053 8.71145523 41.0218401 8.71145523 41.0218401 10.3798482 37.5377053 10.3798482 37.5377053 13.0629405 42.0266364 13.0629405 42.0266364 14.7306144 35.6743055 14.7306144"></polygon>
                    <polygon id="Fill-20" fill="#FFFFFF" points="50.0796018 5 51.9430016 5 51.9430016 14.7306144 49.9786769 14.7306144 46.2941765 8.30873969 46.2941765 14.7306144 44.4300346 14.7306144 44.4300346 5 46.3943593 5 50.0796018 11.4225938"></polygon>
                </g>
            </g>
        </g>
    </g>
</svg>