<svg xmlns="http://www.w3.org/2000/svg" width="68" height="46" viewBox="0 0 68 46">
  <path fill="#FFFFFF" fill-rule="evenodd" d="M101.46875,55.0909091 C101.46875,60.8654773 96.7822832,65.5454545 91,65.5454545 C85.2177168,65.5454545 80.53125,60.8653466 80.53125,55.0909091 C80.53125,49.3164716 85.2177168,44.6363636 91,44.6363636 C96.7822832,44.6363636 101.46875,49.3164716 101.46875,55.0909091 L101.46875,55.0909091 Z M124.5,38.3636364 L124.5,71.8181818 C124.5,74.1296818 122.62701,76 120.3125,76 L61.6875,76 C59.3728594,76 57.5,74.1295511 57.5,71.8181818 L57.5,38.3636364 C57.5,36.0521364 59.3729902,34.1818182 61.6875,34.1818182 L65.875,34.1818182 C65.875,31.8703182 67.7499531,30 70.0625,30 L74.25,30 C76.5625469,30 78.4375,31.8704489 78.4375,34.1818182 L120.3125,34.1818182 C122.627141,34.1818182 124.5,36.052267 124.5,38.3636364 L124.5,38.3636364 Z M105.65625,55.0909091 C105.65625,47.0213068 99.0805664,40.4545455 91,40.4545455 C82.9194336,40.4545455 76.34375,47.0213068 76.34375,55.0909091 C76.34375,63.1605114 82.9194336,69.7272727 91,69.7272727 C99.0805664,69.7272727 105.65625,63.1605114 105.65625,55.0909091 L105.65625,55.0909091 Z M116.125,38.3636364 L107.75,38.3636364 L107.75,42.5454545 L116.125,42.5454545 L116.125,38.3636364 L116.125,38.3636364 Z" transform="translate(-57 -30)"/>
</svg>
